<?xml version="1.0" encoding="utf-8"?>
<!-- Generator: Adobe Illustrator 19.1.0, SVG Export Plug-In . SVG Version: 6.00 Build 0)  -->
<svg version="1.1" id="Layer_1" xmlns="http://www.w3.org/2000/svg" xmlns:xlink="http://www.w3.org/1999/xlink" x="0px" y="0px"
	 viewBox="-80 -3 60 60" style="enable-background:new -80 -3 60 60;" xml:space="preserve">
<style type="text/css">
	.st0{fill:#DB3B32;}
</style>
<path class="st0" d="M-50,2c13.8,0,25,11.2,25,25s-11.2,25-25,25s-25-11.2-25-25S-63.8,2-50,2z M-50-3c-16.6,0-30,13.4-30,30
	s13.4,30,30,30s30-13.4,30-30S-33.4-3-50-3z M-35,12l-14.1,7.5c-2.2-0.3-4.5,0.5-6.2,2.1c-1.7,1.7-2.4,3.9-2.2,6.1L-65,42l14.3-7.6
	c2.2,0.2,4.4-0.5,6.1-2.2c1.6-1.6,2.4-3.8,2.1-6.2C-42.5,26.1-35,12-35,12z M-49.9,30c-1.7,0-3.1-1.4-3.1-3.1c0-1.7,1.4-3.1,3.1-3.1
	c1.7,0,3.1,1.4,3.1,3.1C-46.8,28.6-48.2,30-49.9,30z M-47.9,6.5v5.3h-1.1l0,0l-2-3.4v3.4h-1.1V6.5h1.1l2,3.4V6.5
	C-49,6.5-47.9,6.5-47.9,6.5z M-32.4,28.4v-1.2h2.4v-1h-2.4v-1h2.6v-1h-3.8v5.3h3.8v-1C-29.7,28.4-32.4,28.4-32.4,28.4z M-64.9,24.1
	l-0.8,3.5l-0.8-3.5h-1.1l-0.8,3.4l-0.8-3.4h-1.2l1.3,5.2l0,0h1.2L-67,26l0.8,3.4h1.1l1.3-5.3L-64.9,24.1L-64.9,24.1z M-51.9,47.1
	c0.3,0.2,0.9,0.3,1.5,0.3c1.5,0,2.1-0.8,2.1-1.6c0-0.8-0.4-1.2-1.4-1.6c-0.7-0.3-1-0.4-1-0.8c0-0.3,0.3-0.5,0.8-0.5
	c0.5,0,0.9,0.1,1.1,0.3l0.3-1c-0.3-0.1-0.7-0.3-1.4-0.3c-1.2,0-2,0.7-2,1.6c0,0.8,0.6,1.3,1.5,1.6c0.6,0.2,0.9,0.4,0.9,0.7
	c0,0.4-0.3,0.6-0.8,0.6c-0.5,0-1-0.2-1.3-0.3C-51.6,46.2-51.9,47.1-51.9,47.1z"/>
</svg>
