<?xml version="1.0" encoding="utf-8"?>
<!-- Generator: Adobe Illustrator 19.1.0, SVG Export Plug-In . SVG Version: 6.00 Build 0)  -->
<svg version="1.1" id="Layer_1" xmlns="http://www.w3.org/2000/svg" xmlns:xlink="http://www.w3.org/1999/xlink" x="0px" y="0px"
	 viewBox="-80 -3 60 60" style="enable-background:new -80 -3 60 60;" xml:space="preserve">
<style type="text/css">
	.st0{fill:#DB3B32;}
</style>
<path class="st0" d="M-49.8,2c13.8,0,25,11.2,25,25s-11.2,25-25,25s-25-11.2-25-25S-63.6,2-49.8,2z M-49.8-3c-16.6,0-30,13.4-30,30
	s13.4,30,30,30s30-13.4,30-30S-33.3-3-49.8-3z M-54.9,37c1.4-4.5,4.1-9.8,4.6-11.2c0.7-2-0.5-2.8-4.3,0.5l-0.9-1.6
	c4.4-4.7,13.3-5.8,10.3,1.5c-1.9,4.6-3.3,7.7-4.1,10.1c-1.1,3.5,1.7,2.1,4.5-0.5c0.4,0.6,0.5,0.8,0.9,1.5
	C-50.1,43.3-57.1,43.9-54.9,37z M-43,16.6c-1.3,1.1-3.3,1.1-4.4-0.1c-1.1-1.2-0.9-3,0.4-4.2c1.3-1.1,3.3-1.1,4.4,0.1
	C-41.5,13.6-41.7,15.5-43,16.6z"/>
</svg>
