<?xml version="1.0" encoding="utf-8"?>
<!-- Generator: Adobe Illustrator 19.1.0, SVG Export Plug-In . SVG Version: 6.00 Build 0)  -->
<svg version="1.1" id="Layer_1" xmlns="http://www.w3.org/2000/svg" xmlns:xlink="http://www.w3.org/1999/xlink" x="0px" y="0px"
	 viewBox="-68 9 36 36" style="enable-background:new -68 9 36 36;" xml:space="preserve">
<style type="text/css">
	.st0{fill:#DB3B32;}
</style>
<path class="st0" d="M-41,18.9v2.2c0,0.5-0.4,0.9-0.9,0.9h-2.2c-0.5,0-0.9-0.4-0.9-0.9v-2.2c0-0.5,0.4-0.9,0.9-0.9h2.2
	C-41.4,18-41,18.4-41,18.9z M-42.7,26c0,0.3,0.1,0.7,0.1,1c0,4.1-3.3,7.4-7.4,7.4s-7.4-3.3-7.4-7.4c0-0.3,0-0.7,0.1-1
	c0-0.3,0.1-0.7,0.2-1H-59v10.1c0,0.5,0.4,0.9,0.9,0.9h16.2c0.5,0,0.9-0.4,0.9-0.9V25h-1.9C-42.8,25.3-42.7,25.6-42.7,26z M-50,31.6
	c2.5,0,4.6-2.1,4.6-4.6s-2.1-4.6-4.6-4.6s-4.6,2.1-4.6,4.6S-52.5,31.6-50,31.6z M-32,9v36h-36V9H-32z M-38,17.8
	c0-1.5-1.2-2.8-2.8-2.8h-18.5c-1.5,0-2.8,1.2-2.8,2.8v18.5c0,1.5,1.2,2.8,2.8,2.8h18.5c1.5,0,2.8-1.2,2.8-2.8
	C-38,36.2-38,17.8-38,17.8z"/>
</svg>
