<?xml version="1.0" encoding="utf-8"?>
<!-- Generator: Adobe Illustrator 19.1.0, SVG Export Plug-In . SVG Version: 6.00 Build 0)  -->
<svg version="1.1" id="Layer_1" xmlns="http://www.w3.org/2000/svg" xmlns:xlink="http://www.w3.org/1999/xlink" x="0px" y="0px"
	 viewBox="-80 -3 60 60" style="enable-background:new -80 -3 60 60;" xml:space="preserve">
<style type="text/css">
	.st0{fill:#DB3B32;}
</style>
<path class="st0" d="M-51,6.9c0.5-0.8,1.7-0.8,2.1,0l23.4,38.9c0.5,0.8-0.1,1.9-1.1,1.9l-46.7,0c-1,0-1.6-1.1-1.1-1.9
	C-74.2,45.7-51,6.9-51,6.9z M-49.9,0.7c-1.9,0-3.8,0.9-4.9,2.8l-24.3,40.4c-2.3,3.8,0.5,8.7,4.9,8.7h48.5c4.5,0,7.2-4.9,4.9-8.7
	L-45,3.4C-46.1,1.6-48,0.7-49.9,0.7z"/>
</svg>
