<?xml version="1.0" encoding="utf-8"?>
<!-- Generator: Adobe Illustrator 19.1.0, SVG Export Plug-In . SVG Version: 6.00 Build 0)  -->
<svg version="1.1" id="Layer_1" xmlns="http://www.w3.org/2000/svg" xmlns:xlink="http://www.w3.org/1999/xlink" x="0px" y="0px"
	 viewBox="-68 9 36 36" style="enable-background:new -68 9 36 36;" xml:space="preserve">
<style type="text/css">
	.st0{fill:#DB3B32;}
</style>
<path class="st0" d="M-47.2,30.2c-0.4,0-0.8,0.3-1.1,0.6V28h-1.2v8.8h1.2v-0.5c0.3,0.4,0.7,0.6,1.1,0.6c0.8,0,1.1-0.6,1.1-1.4v-3.6
	C-46,31-46.3,30.2-47.2,30.2z M-47.2,35.3c0,0.2,0,0.4-0.1,0.4c-0.1,0.2-0.4,0.2-0.6,0.1l-0.3-0.2v-4.1l0.3-0.2
	c0.2-0.1,0.5-0.1,0.6,0.1c0.1,0.1,0.1,0.3,0.1,0.5V35.3z M-51.3,22.5v-3.2c0-0.4,0.2-0.7,0.5-0.7c0.4,0,0.6,0.3,0.6,0.7v3.2
	c0,0.4-0.2,0.6-0.5,0.6C-51.1,23.1-51.3,22.9-51.3,22.5z M-54.1,29.3h-1.4v7.5h-1.4v-7.5h-1.4V28h4.2C-54.1,28-54.1,29.3-54.1,29.3z
	 M-51.9,30.3h1.2v6.5h-1.2v-0.7c-0.2,0.3-0.5,0.5-0.7,0.6c-0.7,0.4-1.5,0.4-1.5-1v-5.4h1.2v5c0,0.3,0.1,0.4,0.3,0.4
	c0.2,0,0.6-0.3,0.7-0.5V30.3z M-68,9v36h36V9C-32,9-68,9-68,9z M-47.8,17.4h1.3v5.2c0,0.3,0.1,0.5,0.3,0.5c0.2,0,0.6-0.3,0.7-0.5
	v-5.2h1.3v6.8h-1.3v-0.8c-0.6,0.7-1.1,0.9-1.5,0.9c-0.7,0-0.9-0.5-0.9-1.2L-47.8,17.4L-47.8,17.4z M-50.8,17.4c1,0,1.8,0.8,1.8,1.8
	v3.3c0,1.1-0.8,1.8-1.8,1.8c-1.2,0-1.9-0.6-1.9-1.8v-3.3C-52.6,18.1-51.9,17.4-50.8,17.4z M-55.9,15l1,3.7L-54,15h1.5l-1.7,5.5v3.8
	h-1.4v-3.8l-1.7-5.5C-57.3,15-55.9,15-55.9,15z M-43.2,38.9c-2.6,0.2-11.1,0.2-13.7,0c-2.8-0.2-3.1-1.9-3.2-6.4
	c0-4.5,0.4-6.2,3.2-6.4c2.6-0.2,11.1-0.2,13.7,0c2.8,0.2,3.1,1.9,3.2,6.4C-40,37-40.4,38.7-43.2,38.9z M-43.2,30.1
	c-1.1,0-1.8,0.8-1.8,1.9V35c0,1.2,0.6,2,1.7,2c1.3,0,1.8-0.8,1.8-2v-0.5h-1.2v0.5c0,0.6,0,0.9-0.5,0.9c-0.5,0-0.5-0.4-0.5-0.9v-1.2
	h2.3v-1.7C-41.5,30.9-42.1,30.1-43.2,30.1z M-42.8,32.7h-1.1v-0.7c0-0.4,0.1-0.8,0.5-0.8c0.4,0,0.5,0.3,0.5,0.8V32.7z"/>
</svg>
